<?xml version="1.0" encoding="UTF-8" standalone="no"?>
<!DOCTYPE svg PUBLIC "-//W3C//DTD SVG 1.1//EN" "http://www.w3.org/Graphics/SVG/1.1/DTD/svg11.dtd">
<svg
   xmlns:svg="http://www.w3.org/2000/svg"
   xmlns="http://www.w3.org/2000/svg"
   version="1.1"
   id="svg9134">
  <path
     d="m 55.604,9.442 0,20.628 C 54.298,26.495 52.292,22.187 49.48,20.257 53.13,18.896 54.399,15.051 54.375,10.774 54.365,5.25 49.252,0.834 43.467,0.831 l -11.723,0 L 20.838,12.925 20.838,0 0.589,22.746 0.649,36.704 13.672,22.726 13.652,37 27.311,21.772 l 0,14.505 9.935,0 0,-12.813 2.956,0 c 0.136,-0.08 0.896,0.587 1.549,1.773 2.063,3.512 4.397,10.685 4.406,10.695 l 0.1,0.345 18.755,0 0,-36.212 -9.41,9.377 z m -12.832,5.27 -5.828,0 0,-5.465 5.828,0 c 1.238,0 2.361,1.182 2.361,2.715 0,0.753 -0.28,1.492 -0.708,1.995 -0.446,0.465 -1.036,0.758 -1.653,0.755"
     id="path8908"
     style="fill:#ffffff;fill-opacity:1;fill-rule:nonzero;stroke:none" />
</svg>
