<svg width="62" height="62" viewBox="0 0 62 62" fill="none" xmlns="http://www.w3.org/2000/svg">
<path d="M14.6523 11.9277H5.44922C4.44523 11.9277 3.63281 11.1153 3.63281 10.1113C3.63281 9.10734 4.44523 8.29492 5.44922 8.29492H14.6523C15.6563 8.29492 16.4688 9.10734 16.4688 10.1113C16.4688 11.1153 15.6563 11.9277 14.6523 11.9277Z" fill="#2F49D1"/>
<path d="M14.6523 26.459H5.44922C4.44523 26.459 3.63281 25.6466 3.63281 24.6426C3.63281 23.6386 4.44523 22.8262 5.44922 22.8262H14.6523C15.6563 22.8262 16.4688 23.6386 16.4688 24.6426C16.4688 25.6466 15.6563 26.459 14.6523 26.459Z" fill="#2F49D1"/>
<path d="M11.0195 19.1934H1.81641C0.812418 19.1934 0 18.3809 0 17.377C0 16.373 0.812418 15.5605 1.81641 15.5605H11.0195C12.0235 15.5605 12.8359 16.373 12.8359 17.377C12.8359 18.3809 12.0235 19.1934 11.0195 19.1934Z" fill="#2F49D1"/>
<path d="M33.9233 6.18047C32.4794 5.2208 30.5637 5.41067 29.3396 6.63457L19.3494 16.6248C17.9303 18.0439 17.9303 20.3427 19.3494 21.7618C20.7685 23.1809 23.0674 23.1809 24.4865 21.7618L32.3711 13.8772L38.0132 17.9415L45.7298 14.3543L33.9233 6.18047Z" fill="#003867"/>
<path d="M26.615 29.3396L3.00176 52.9529C1.58266 54.372 1.58266 56.6708 3.00176 58.0899C4.42074 59.5089 6.7197 59.509 8.1388 58.0899L29.1836 37.0452L26.615 29.3396Z" fill="#003867"/>
<path d="M58.3671 24.6425H47.3476V17.3769C47.3476 15.9488 46.4837 14.5972 45.103 14.0245C43.7129 13.4496 42.1482 13.8051 41.1452 14.8095L26.615 29.3396C25.1959 30.7587 25.1959 33.0576 26.615 34.4767L34.945 42.8066L24.7986 52.9529C23.3795 54.372 23.3795 56.6709 24.7986 58.09C26.2176 59.5089 28.5166 59.5091 29.9357 58.09L42.6505 45.3751C44.0696 43.956 44.0696 41.6572 42.6505 40.2381L34.3206 31.9082L40.082 26.1468V28.2753C40.082 30.2815 41.7086 31.9082 43.7148 31.9082H58.3671C60.3733 31.9082 62 30.2815 62 28.2753C62 26.2692 60.3733 24.6425 58.3671 24.6425Z" fill="#1A1E3C"/>
<path d="M52.7969 13.7441C55.8064 13.7441 58.2461 11.3044 58.2461 8.29492C58.2461 5.2854 55.8064 2.8457 52.7969 2.8457C49.7874 2.8457 47.3477 5.2854 47.3477 8.29492C47.3477 11.3044 49.7874 13.7441 52.7969 13.7441Z" fill="#1A1E3C"/>
</svg>
