<?xml version="1.0" encoding="UTF-8" standalone="no"?>
<!DOCTYPE svg PUBLIC "-//W3C//DTD SVG 1.1//EN"
 "http://www.w3.org/Graphics/SVG/1.1/DTD/svg11.dtd">
<!-- Generated by graphviz version 2.47.1 (20210417.1919)
 -->
<!-- Title: undefined Pages: 1 -->
<svg width="1288pt" height="1208pt"
 viewBox="0.00 0.00 1287.60 1207.60" xmlns="http://www.w3.org/2000/svg" xmlns:xlink="http://www.w3.org/1999/xlink">
<g id="graph0" class="graph" transform="scale(1 1) rotate(0) translate(28.8 1157.8)">
<title>undefined</title>
<polygon fill="white" stroke="transparent" points="-28.8,49.8 -28.8,-1157.8 1258.8,-1157.8 1258.8,49.8 -28.8,49.8"/>
<text text-anchor="start" x="581.5" y="12.6" font-family="Helvetica,sans-Serif" font-weight="bold" font-size="12.00">/tmp/dev.db</text>
<!-- alembic_version -->
<g id="node1" class="node">
<title>alembic_version</title>
<path fill="none" stroke="black" d="M922.24,-840.14C922.24,-840.14 1054.24,-840.14 1054.24,-840.14 1060.24,-840.14 1066.24,-846.14 1066.24,-852.14 1066.24,-852.14 1066.24,-881.14 1066.24,-881.14 1066.24,-887.14 1060.24,-893.14 1054.24,-893.14 1054.24,-893.14 922.24,-893.14 922.24,-893.14 916.24,-893.14 910.24,-887.14 910.24,-881.14 910.24,-881.14 910.24,-852.14 910.24,-852.14 910.24,-846.14 916.24,-840.14 922.24,-840.14"/>
<text text-anchor="start" x="935.24" y="-872.74" font-family="Helvetica,sans-Serif" font-weight="bold" font-size="13.00">alembic_version</text>
<polyline fill="none" stroke="black" points="910.24,-863.14 1066.24,-863.14 "/>
<text text-anchor="start" x="917.24" y="-849.04" font-family="Helvetica,sans-Serif" font-size="12.00">version_num* </text>
<text text-anchor="start" x="994.24" y="-849.04" font-family="Helvetica,sans-Serif" font-weight="bold" font-size="12.00">varchar(32)</text>
</g>
<!-- users -->
<g id="node2" class="node">
<title>users</title>
<path fill="none" stroke="black" d="M922.25,-560.04C922.25,-560.04 1042.25,-560.04 1042.25,-560.04 1048.25,-560.04 1054.25,-566.04 1054.25,-572.04 1054.25,-572.04 1054.25,-737.04 1054.25,-737.04 1054.25,-743.04 1048.25,-749.04 1042.25,-749.04 1042.25,-749.04 922.25,-749.04 922.25,-749.04 916.25,-749.04 910.25,-743.04 910.25,-737.04 910.25,-737.04 910.25,-572.04 910.25,-572.04 910.25,-566.04 916.25,-560.04 922.25,-560.04"/>
<text text-anchor="start" x="964.25" y="-728.64" font-family="Helvetica,sans-Serif" font-weight="bold" font-size="13.00">users</text>
<polyline fill="none" stroke="black" points="910.25,-719.04 1054.25,-719.04 "/>
<text text-anchor="start" x="917.25" y="-704.94" font-family="Helvetica,sans-Serif" font-size="12.00">id* </text>
<text text-anchor="start" x="935.25" y="-704.94" font-family="Helvetica,sans-Serif" font-weight="bold" font-size="12.00">integer</text>
<text text-anchor="start" x="917.25" y="-687.94" font-family="Helvetica,sans-Serif" font-size="12.00">username </text>
<text text-anchor="start" x="974.25" y="-687.94" font-family="Helvetica,sans-Serif" font-weight="bold" font-size="12.00">varchar(80)</text>
<text text-anchor="start" x="917.25" y="-670.94" font-family="Helvetica,sans-Serif" font-size="12.00">email </text>
<text text-anchor="start" x="950.25" y="-670.94" font-family="Helvetica,sans-Serif" font-weight="bold" font-size="12.00">varchar(80)</text>
<text text-anchor="start" x="917.25" y="-653.94" font-family="Helvetica,sans-Serif" font-size="12.00">password </text>
<text text-anchor="start" x="972.25" y="-653.94" font-family="Helvetica,sans-Serif" font-weight="bold" font-size="12.00">blob</text>
<text text-anchor="start" x="917.25" y="-636.94" font-family="Helvetica,sans-Serif" font-size="12.00">created_at </text>
<text text-anchor="start" x="977.25" y="-636.94" font-family="Helvetica,sans-Serif" font-weight="bold" font-size="12.00">datetime</text>
<text text-anchor="start" x="917.25" y="-619.94" font-family="Helvetica,sans-Serif" font-size="12.00">first_name </text>
<text text-anchor="start" x="976.25" y="-619.94" font-family="Helvetica,sans-Serif" font-weight="bold" font-size="12.00">varchar(30)</text>
<text text-anchor="start" x="917.25" y="-602.94" font-family="Helvetica,sans-Serif" font-size="12.00">last_name </text>
<text text-anchor="start" x="976.25" y="-602.94" font-family="Helvetica,sans-Serif" font-weight="bold" font-size="12.00">varchar(30)</text>
<text text-anchor="start" x="917.25" y="-585.94" font-family="Helvetica,sans-Serif" font-size="12.00">active </text>
<text text-anchor="start" x="952.25" y="-585.94" font-family="Helvetica,sans-Serif" font-weight="bold" font-size="12.00">boolean</text>
<text text-anchor="start" x="917.25" y="-568.94" font-family="Helvetica,sans-Serif" font-size="12.00">is_admin </text>
<text text-anchor="start" x="969.25" y="-568.94" font-family="Helvetica,sans-Serif" font-weight="bold" font-size="12.00">boolean</text>
</g>
<!-- roles -->
<g id="node3" class="node">
<title>roles</title>
<path fill="none" stroke="black" d="M1098.26,-584.74C1098.26,-584.74 1218.26,-584.74 1218.26,-584.74 1224.26,-584.74 1230.26,-590.74 1230.26,-596.74 1230.26,-596.74 1230.26,-659.74 1230.26,-659.74 1230.26,-665.74 1224.26,-671.74 1218.26,-671.74 1218.26,-671.74 1098.26,-671.74 1098.26,-671.74 1092.26,-671.74 1086.26,-665.74 1086.26,-659.74 1086.26,-659.74 1086.26,-596.74 1086.26,-596.74 1086.26,-590.74 1092.26,-584.74 1098.26,-584.74"/>
<text text-anchor="start" x="1142.26" y="-651.34" font-family="Helvetica,sans-Serif" font-weight="bold" font-size="13.00">roles</text>
<polyline fill="none" stroke="black" points="1086.26,-641.74 1230.26,-641.74 "/>
<text text-anchor="start" x="1093.26" y="-627.64" font-family="Helvetica,sans-Serif" font-size="12.00">id* </text>
<text text-anchor="start" x="1111.26" y="-627.64" font-family="Helvetica,sans-Serif" font-weight="bold" font-size="12.00">integer</text>
<text text-anchor="start" x="1093.26" y="-610.64" font-family="Helvetica,sans-Serif" font-size="12.00">name </text>
<text text-anchor="start" x="1127.26" y="-610.64" font-family="Helvetica,sans-Serif" font-weight="bold" font-size="12.00">varchar(80)</text>
<text text-anchor="start" x="1093.26" y="-593.64" font-family="Helvetica,sans-Serif" font-size="12.00">user_id </text>
<text text-anchor="start" x="1136.26" y="-593.64" font-family="Helvetica,sans-Serif" font-weight="bold" font-size="12.00">integer</text>
</g>
<!-- roles&#45;&gt;users -->
<g id="edge1" class="edge">
<title>roles&#45;&gt;users</title>
<path fill="none" stroke="black" stroke-width="0.9" d="M1086.16,-639.01C1078.49,-640.16 1070.66,-641.33 1062.9,-642.49"/>
<polygon fill="black" stroke="black" stroke-width="0.9" points="1062.02,-639.79 1054.52,-643.74 1062.85,-645.33 1062.02,-639.79"/>
</g>
<!-- accounts -->
<g id="node4" class="node">
<title>accounts</title>
<path fill="none" stroke="black" d="M562.84,-47.79C562.84,-47.79 682.84,-47.79 682.84,-47.79 688.84,-47.79 694.84,-53.79 694.84,-59.79 694.84,-59.79 694.84,-241.79 694.84,-241.79 694.84,-247.79 688.84,-253.79 682.84,-253.79 682.84,-253.79 562.84,-253.79 562.84,-253.79 556.84,-253.79 550.84,-247.79 550.84,-241.79 550.84,-241.79 550.84,-59.79 550.84,-59.79 550.84,-53.79 556.84,-47.79 562.84,-47.79"/>
<text text-anchor="start" x="592.84" y="-233.39" font-family="Helvetica,sans-Serif" font-weight="bold" font-size="13.00">accounts</text>
<polyline fill="none" stroke="black" points="550.84,-223.79 694.84,-223.79 "/>
<text text-anchor="start" x="557.84" y="-210.19" font-family="Helvetica,sans-Serif" font-size="12.00">id* </text>
<text text-anchor="start" x="575.84" y="-210.19" font-family="Helvetica,sans-Serif" font-weight="bold" font-size="12.00">integer</text>
<text text-anchor="start" x="557.84" y="-193.19" font-family="Helvetica,sans-Serif" font-size="12.00">username </text>
<text text-anchor="start" x="614.84" y="-193.19" font-family="Helvetica,sans-Serif" font-weight="bold" font-size="12.00">varchar(80)</text>
<text text-anchor="start" x="557.84" y="-176.19" font-family="Helvetica,sans-Serif" font-size="12.00">email </text>
<text text-anchor="start" x="590.84" y="-176.19" font-family="Helvetica,sans-Serif" font-weight="bold" font-size="12.00">varchar(80)</text>
<text text-anchor="start" x="557.84" y="-159.19" font-family="Helvetica,sans-Serif" font-size="12.00">password </text>
<text text-anchor="start" x="612.84" y="-159.19" font-family="Helvetica,sans-Serif" font-weight="bold" font-size="12.00">blob</text>
<text text-anchor="start" x="557.84" y="-142.19" font-family="Helvetica,sans-Serif" font-size="12.00">created_at </text>
<text text-anchor="start" x="617.84" y="-142.19" font-family="Helvetica,sans-Serif" font-weight="bold" font-size="12.00">datetime</text>
<text text-anchor="start" x="557.84" y="-125.19" font-family="Helvetica,sans-Serif" font-size="12.00">created_by_id </text>
<text text-anchor="start" x="636.84" y="-125.19" font-family="Helvetica,sans-Serif" font-weight="bold" font-size="12.00">integer</text>
<text text-anchor="start" x="557.84" y="-108.19" font-family="Helvetica,sans-Serif" font-size="12.00">birthday </text>
<text text-anchor="start" x="603.84" y="-108.19" font-family="Helvetica,sans-Serif" font-weight="bold" font-size="12.00">date</text>
<text text-anchor="start" x="557.84" y="-91.19" font-family="Helvetica,sans-Serif" font-size="12.00">first_name </text>
<text text-anchor="start" x="616.84" y="-91.19" font-family="Helvetica,sans-Serif" font-weight="bold" font-size="12.00">varchar(30)</text>
<text text-anchor="start" x="557.84" y="-74.19" font-family="Helvetica,sans-Serif" font-size="12.00">last_name </text>
<text text-anchor="start" x="616.84" y="-74.19" font-family="Helvetica,sans-Serif" font-weight="bold" font-size="12.00">varchar(30)</text>
<text text-anchor="start" x="557.84" y="-57.19" font-family="Helvetica,sans-Serif" font-size="12.00">active </text>
<text text-anchor="start" x="592.84" y="-57.19" font-family="Helvetica,sans-Serif" font-weight="bold" font-size="12.00">boolean</text>
</g>
<!-- accounts&#45;&gt;accounts -->
<g id="edge2" class="edge">
<title>accounts&#45;&gt;accounts</title>
<path fill="none" stroke="black" stroke-width="0.9" d="M694.99,-166.91C718.82,-166.87 737.84,-161.5 737.84,-150.79 737.84,-141.34 723.02,-136.04 703.15,-134.9"/>
<polygon fill="black" stroke="black" stroke-width="0.9" points="703.07,-132.1 694.99,-134.67 702.91,-137.69 703.07,-132.1"/>
</g>
<!-- athletes -->
<g id="node5" class="node">
<title>athletes</title>
<path fill="none" stroke="black" d="M488.48,-505.11C488.48,-505.11 629.48,-505.11 629.48,-505.11 635.48,-505.11 641.48,-511.11 641.48,-517.11 641.48,-517.11 641.48,-614.11 641.48,-614.11 641.48,-620.11 635.48,-626.11 629.48,-626.11 629.48,-626.11 488.48,-626.11 488.48,-626.11 482.48,-626.11 476.48,-620.11 476.48,-614.11 476.48,-614.11 476.48,-517.11 476.48,-517.11 476.48,-511.11 482.48,-505.11 488.48,-505.11"/>
<text text-anchor="start" x="532.98" y="-605.71" font-family="Helvetica,sans-Serif" font-weight="bold" font-size="13.00">athletes</text>
<polyline fill="none" stroke="black" points="476.48,-596.11 641.48,-596.11 "/>
<text text-anchor="start" x="483.98" y="-582.01" font-family="Helvetica,sans-Serif" font-size="12.00">id* </text>
<text text-anchor="start" x="501.98" y="-582.01" font-family="Helvetica,sans-Serif" font-weight="bold" font-size="12.00">integer</text>
<text text-anchor="start" x="483.98" y="-565.01" font-family="Helvetica,sans-Serif" font-size="12.00">account_id </text>
<text text-anchor="start" x="545.98" y="-565.01" font-family="Helvetica,sans-Serif" font-weight="bold" font-size="12.00">integer</text>
<text text-anchor="start" x="483.98" y="-548.01" font-family="Helvetica,sans-Serif" font-size="12.00">treatmentStarted </text>
<text text-anchor="start" x="574.98" y="-548.01" font-family="Helvetica,sans-Serif" font-weight="bold" font-size="12.00">date</text>
<text text-anchor="start" x="483.98" y="-531.01" font-family="Helvetica,sans-Serif" font-size="12.00">treatmentFinished </text>
<text text-anchor="start" x="583.98" y="-531.01" font-family="Helvetica,sans-Serif" font-weight="bold" font-size="12.00">date</text>
<text text-anchor="start" x="483.98" y="-514.01" font-family="Helvetica,sans-Serif" font-size="12.00">treatmentGoal </text>
<text text-anchor="start" x="562.98" y="-514.01" font-family="Helvetica,sans-Serif" font-weight="bold" font-size="12.00">varchar(280)</text>
</g>
<!-- athletes&#45;&gt;accounts -->
<g id="edge3" class="edge">
<title>athletes&#45;&gt;accounts</title>
<path fill="none" stroke="black" stroke-width="0.9" d="M568.34,-504.85C578.13,-441.21 593.73,-339.86 605.74,-261.87"/>
<polygon fill="black" stroke="black" stroke-width="0.9" points="608.51,-262.25 606.96,-253.92 602.98,-261.4 608.51,-262.25"/>
</g>
<!-- trainers -->
<g id="node6" class="node">
<title>trainers</title>
<path fill="none" stroke="black" d="M777.95,-0.71C777.95,-0.71 897.95,-0.71 897.95,-0.71 903.95,-0.71 909.95,-6.71 909.95,-12.71 909.95,-12.71 909.95,-58.71 909.95,-58.71 909.95,-64.71 903.95,-70.71 897.95,-70.71 897.95,-70.71 777.95,-70.71 777.95,-70.71 771.95,-70.71 765.95,-64.71 765.95,-58.71 765.95,-58.71 765.95,-12.71 765.95,-12.71 765.95,-6.71 771.95,-0.71 777.95,-0.71"/>
<text text-anchor="start" x="812.95" y="-50.31" font-family="Helvetica,sans-Serif" font-weight="bold" font-size="13.00">trainers</text>
<polyline fill="none" stroke="black" points="765.95,-40.71 909.95,-40.71 "/>
<text text-anchor="start" x="772.95" y="-27.11" font-family="Helvetica,sans-Serif" font-size="12.00">id* </text>
<text text-anchor="start" x="790.95" y="-27.11" font-family="Helvetica,sans-Serif" font-weight="bold" font-size="12.00">integer</text>
<text text-anchor="start" x="772.95" y="-10.11" font-family="Helvetica,sans-Serif" font-size="12.00">account_id </text>
<text text-anchor="start" x="834.95" y="-10.11" font-family="Helvetica,sans-Serif" font-weight="bold" font-size="12.00">integer</text>
</g>
<!-- trainers&#45;&gt;accounts -->
<g id="edge4" class="edge">
<title>trainers&#45;&gt;accounts</title>
<path fill="none" stroke="black" stroke-width="0.9" d="M772.24,-70.87C750.07,-82.73 725.09,-96.09 701.99,-108.45"/>
<polygon fill="black" stroke="black" stroke-width="0.9" points="700.62,-106 694.89,-112.25 703.26,-110.94 700.62,-106"/>
</g>
<!-- workouts -->
<g id="node7" class="node">
<title>workouts</title>
<path fill="none" stroke="black" d="M695.85,-663.01C695.85,-663.01 815.85,-663.01 815.85,-663.01 821.85,-663.01 827.85,-669.01 827.85,-675.01 827.85,-675.01 827.85,-925.01 827.85,-925.01 827.85,-931.01 821.85,-937.01 815.85,-937.01 815.85,-937.01 695.85,-937.01 695.85,-937.01 689.85,-937.01 683.85,-931.01 683.85,-925.01 683.85,-925.01 683.85,-675.01 683.85,-675.01 683.85,-669.01 689.85,-663.01 695.85,-663.01"/>
<text text-anchor="start" x="725.85" y="-916.61" font-family="Helvetica,sans-Serif" font-weight="bold" font-size="13.00">workouts</text>
<polyline fill="none" stroke="black" points="683.85,-907.01 827.85,-907.01 "/>
<text text-anchor="start" x="690.85" y="-893.41" font-family="Helvetica,sans-Serif" font-size="12.00">id* </text>
<text text-anchor="start" x="708.85" y="-893.41" font-family="Helvetica,sans-Serif" font-weight="bold" font-size="12.00">integer</text>
<text text-anchor="start" x="690.85" y="-876.41" font-family="Helvetica,sans-Serif" font-size="12.00">athlete_id </text>
<text text-anchor="start" x="746.85" y="-876.41" font-family="Helvetica,sans-Serif" font-weight="bold" font-size="12.00">integer</text>
<text text-anchor="start" x="690.85" y="-859.41" font-family="Helvetica,sans-Serif" font-size="12.00">type </text>
<text text-anchor="start" x="716.85" y="-859.41" font-family="Helvetica,sans-Serif" font-weight="bold" font-size="12.00">varchar(30)</text>
<text text-anchor="start" x="690.85" y="-842.41" font-family="Helvetica,sans-Serif" font-size="12.00">start_time </text>
<text text-anchor="start" x="745.85" y="-842.41" font-family="Helvetica,sans-Serif" font-weight="bold" font-size="12.00">datetime</text>
<text text-anchor="start" x="690.85" y="-825.41" font-family="Helvetica,sans-Serif" font-size="12.00">end_time </text>
<text text-anchor="start" x="743.85" y="-825.41" font-family="Helvetica,sans-Serif" font-weight="bold" font-size="12.00">datetime</text>
<text text-anchor="start" x="690.85" y="-808.41" font-family="Helvetica,sans-Serif" font-size="12.00">duration </text>
<text text-anchor="start" x="737.85" y="-808.41" font-family="Helvetica,sans-Serif" font-weight="bold" font-size="12.00">integer</text>
<text text-anchor="start" x="690.85" y="-791.41" font-family="Helvetica,sans-Serif" font-size="12.00">kcal </text>
<text text-anchor="start" x="715.85" y="-791.41" font-family="Helvetica,sans-Serif" font-weight="bold" font-size="12.00">integer</text>
<text text-anchor="start" x="690.85" y="-774.41" font-family="Helvetica,sans-Serif" font-size="12.00">distance </text>
<text text-anchor="start" x="739.85" y="-774.41" font-family="Helvetica,sans-Serif" font-weight="bold" font-size="12.00">float</text>
<text text-anchor="start" x="690.85" y="-757.41" font-family="Helvetica,sans-Serif" font-size="12.00">terrainUp </text>
<text text-anchor="start" x="743.85" y="-757.41" font-family="Helvetica,sans-Serif" font-weight="bold" font-size="12.00">float</text>
<text text-anchor="start" x="690.85" y="-740.41" font-family="Helvetica,sans-Serif" font-size="12.00">terrainDown </text>
<text text-anchor="start" x="759.85" y="-740.41" font-family="Helvetica,sans-Serif" font-weight="bold" font-size="12.00">float</text>
<text text-anchor="start" x="690.85" y="-723.41" font-family="Helvetica,sans-Serif" font-size="12.00">heartRateSamples </text>
<text text-anchor="start" x="793.85" y="-723.41" font-family="Helvetica,sans-Serif" font-weight="bold" font-size="12.00">blob</text>
<text text-anchor="start" x="690.85" y="-706.41" font-family="Helvetica,sans-Serif" font-size="12.00">speedSamples </text>
<text text-anchor="start" x="774.85" y="-706.41" font-family="Helvetica,sans-Serif" font-weight="bold" font-size="12.00">blob</text>
<text text-anchor="start" x="690.85" y="-689.41" font-family="Helvetica,sans-Serif" font-size="12.00">altitudeSamples </text>
<text text-anchor="start" x="780.85" y="-689.41" font-family="Helvetica,sans-Serif" font-weight="bold" font-size="12.00">blob</text>
<text text-anchor="start" x="690.85" y="-672.41" font-family="Helvetica,sans-Serif" font-size="12.00">kilometerPace </text>
<text text-anchor="start" x="770.85" y="-672.41" font-family="Helvetica,sans-Serif" font-weight="bold" font-size="12.00">blob</text>
</g>
<!-- workouts&#45;&gt;athletes -->
<g id="edge5" class="edge">
<title>workouts&#45;&gt;athletes</title>
<path fill="none" stroke="black" stroke-width="0.9" d="M683.66,-714.06C661.1,-687.2 636.56,-657.97 615.26,-632.62"/>
<polygon fill="black" stroke="black" stroke-width="0.9" points="617.21,-630.58 609.92,-626.26 612.92,-634.18 617.21,-630.58"/>
</g>
<!-- workoutRatings -->
<g id="node8" class="node">
<title>workoutRatings</title>
<path fill="none" stroke="black" d="M788.49,-970.03C788.49,-970.03 908.49,-970.03 908.49,-970.03 914.49,-970.03 920.49,-976.03 920.49,-982.03 920.49,-982.03 920.49,-1079.03 920.49,-1079.03 920.49,-1085.03 914.49,-1091.03 908.49,-1091.03 908.49,-1091.03 788.49,-1091.03 788.49,-1091.03 782.49,-1091.03 776.49,-1085.03 776.49,-1079.03 776.49,-1079.03 776.49,-982.03 776.49,-982.03 776.49,-976.03 782.49,-970.03 788.49,-970.03"/>
<text text-anchor="start" x="797.49" y="-1070.63" font-family="Helvetica,sans-Serif" font-weight="bold" font-size="13.00">workoutRatings</text>
<polyline fill="none" stroke="black" points="776.49,-1061.03 920.49,-1061.03 "/>
<text text-anchor="start" x="783.49" y="-1046.93" font-family="Helvetica,sans-Serif" font-size="12.00">id* </text>
<text text-anchor="start" x="801.49" y="-1046.93" font-family="Helvetica,sans-Serif" font-weight="bold" font-size="12.00">integer</text>
<text text-anchor="start" x="783.49" y="-1029.93" font-family="Helvetica,sans-Serif" font-size="12.00">workout_id </text>
<text text-anchor="start" x="845.49" y="-1029.93" font-family="Helvetica,sans-Serif" font-weight="bold" font-size="12.00">integer</text>
<text text-anchor="start" x="783.49" y="-1012.93" font-family="Helvetica,sans-Serif" font-size="12.00">rating </text>
<text text-anchor="start" x="817.49" y="-1012.93" font-family="Helvetica,sans-Serif" font-weight="bold" font-size="12.00">integer</text>
<text text-anchor="start" x="783.49" y="-995.93" font-family="Helvetica,sans-Serif" font-size="12.00">intensity </text>
<text text-anchor="start" x="831.49" y="-995.93" font-family="Helvetica,sans-Serif" font-weight="bold" font-size="12.00">integer</text>
<text text-anchor="start" x="783.49" y="-978.93" font-family="Helvetica,sans-Serif" font-size="12.00">comment </text>
<text text-anchor="start" x="835.49" y="-978.93" font-family="Helvetica,sans-Serif" font-weight="bold" font-size="12.00">varchar(280)</text>
</g>
<!-- workoutRatings&#45;&gt;workouts -->
<g id="edge6" class="edge">
<title>workoutRatings&#45;&gt;workouts</title>
<path fill="none" stroke="black" stroke-width="0.9" d="M824.15,-969.96C820.96,-962.02 817.59,-953.62 814.12,-944.99"/>
<polygon fill="black" stroke="black" stroke-width="0.9" points="816.62,-943.72 811.04,-937.34 811.43,-945.81 816.62,-943.72"/>
</g>
<!-- studyGroups -->
<g id="node9" class="node">
<title>studyGroups</title>
<path fill="none" stroke="black" d="M721.95,-367.27C721.95,-367.27 841.95,-367.27 841.95,-367.27 847.95,-367.27 853.95,-373.27 853.95,-379.27 853.95,-379.27 853.95,-425.27 853.95,-425.27 853.95,-431.27 847.95,-437.27 841.95,-437.27 841.95,-437.27 721.95,-437.27 721.95,-437.27 715.95,-437.27 709.95,-431.27 709.95,-425.27 709.95,-425.27 709.95,-379.27 709.95,-379.27 709.95,-373.27 715.95,-367.27 721.95,-367.27"/>
<text text-anchor="start" x="739.95" y="-416.87" font-family="Helvetica,sans-Serif" font-weight="bold" font-size="13.00">studyGroups</text>
<polyline fill="none" stroke="black" points="709.95,-407.27 853.95,-407.27 "/>
<text text-anchor="start" x="716.95" y="-393.67" font-family="Helvetica,sans-Serif" font-size="12.00">id* </text>
<text text-anchor="start" x="734.95" y="-393.67" font-family="Helvetica,sans-Serif" font-weight="bold" font-size="12.00">integer</text>
<text text-anchor="start" x="716.95" y="-376.67" font-family="Helvetica,sans-Serif" font-size="12.00">name </text>
<text text-anchor="start" x="750.95" y="-376.67" font-family="Helvetica,sans-Serif" font-weight="bold" font-size="12.00">varchar(80)</text>
</g>
<!-- studyGroupAthletes -->
<g id="node10" class="node">
<title>studyGroupAthletes</title>
<path fill="none" stroke="black" d="M339.86,-337.1C339.86,-337.1 459.86,-337.1 459.86,-337.1 465.86,-337.1 471.86,-343.1 471.86,-349.1 471.86,-349.1 471.86,-412.1 471.86,-412.1 471.86,-418.1 465.86,-424.1 459.86,-424.1 459.86,-424.1 339.86,-424.1 339.86,-424.1 333.86,-424.1 327.86,-418.1 327.86,-412.1 327.86,-412.1 327.86,-349.1 327.86,-349.1 327.86,-343.1 333.86,-337.1 339.86,-337.1"/>
<text text-anchor="start" x="334.86" y="-403.7" font-family="Helvetica,sans-Serif" font-weight="bold" font-size="13.00">studyGroupAthletes</text>
<polyline fill="none" stroke="black" points="327.86,-394.1 471.86,-394.1 "/>
<text text-anchor="start" x="334.86" y="-380" font-family="Helvetica,sans-Serif" font-size="12.00">id* </text>
<text text-anchor="start" x="352.86" y="-380" font-family="Helvetica,sans-Serif" font-weight="bold" font-size="12.00">integer</text>
<text text-anchor="start" x="334.86" y="-363" font-family="Helvetica,sans-Serif" font-size="12.00">studygroup_id </text>
<text text-anchor="start" x="413.86" y="-363" font-family="Helvetica,sans-Serif" font-weight="bold" font-size="12.00">integer</text>
<text text-anchor="start" x="334.86" y="-346" font-family="Helvetica,sans-Serif" font-size="12.00">athlete_id </text>
<text text-anchor="start" x="390.86" y="-346" font-family="Helvetica,sans-Serif" font-weight="bold" font-size="12.00">integer</text>
</g>
<!-- studyGroupAthletes&#45;&gt;athletes -->
<g id="edge8" class="edge">
<title>studyGroupAthletes&#45;&gt;athletes</title>
<path fill="none" stroke="black" stroke-width="0.9" d="M437.57,-424.44C456.64,-446.61 480.18,-473.98 501.44,-498.71"/>
<polygon fill="black" stroke="black" stroke-width="0.9" points="499.46,-500.69 506.8,-504.93 503.7,-497.04 499.46,-500.69"/>
</g>
<!-- studyGroupAthletes&#45;&gt;studyGroups -->
<g id="edge7" class="edge">
<title>studyGroupAthletes&#45;&gt;studyGroups</title>
<path fill="none" stroke="black" stroke-width="0.9" d="M472.18,-384.7C537.67,-388.41 634,-393.88 701.81,-397.72"/>
<polygon fill="black" stroke="black" stroke-width="0.9" points="701.79,-400.53 709.93,-398.19 702.1,-394.94 701.79,-400.53"/>
</g>
<!-- studyGroupTrainers -->
<g id="node11" class="node">
<title>studyGroupTrainers</title>
<path fill="none" stroke="black" d="M933.49,-238.58C933.49,-238.58 1053.49,-238.58 1053.49,-238.58 1059.49,-238.58 1065.49,-244.58 1065.49,-250.58 1065.49,-250.58 1065.49,-313.58 1065.49,-313.58 1065.49,-319.58 1059.49,-325.58 1053.49,-325.58 1053.49,-325.58 933.49,-325.58 933.49,-325.58 927.49,-325.58 921.49,-319.58 921.49,-313.58 921.49,-313.58 921.49,-250.58 921.49,-250.58 921.49,-244.58 927.49,-238.58 933.49,-238.58"/>
<text text-anchor="start" x="929.49" y="-305.18" font-family="Helvetica,sans-Serif" font-weight="bold" font-size="13.00">studyGroupTrainers</text>
<polyline fill="none" stroke="black" points="921.49,-295.58 1065.49,-295.58 "/>
<text text-anchor="start" x="928.49" y="-281.48" font-family="Helvetica,sans-Serif" font-size="12.00">id* </text>
<text text-anchor="start" x="946.49" y="-281.48" font-family="Helvetica,sans-Serif" font-weight="bold" font-size="12.00">integer</text>
<text text-anchor="start" x="928.49" y="-264.48" font-family="Helvetica,sans-Serif" font-size="12.00">studygroup_id </text>
<text text-anchor="start" x="1007.49" y="-264.48" font-family="Helvetica,sans-Serif" font-weight="bold" font-size="12.00">integer</text>
<text text-anchor="start" x="928.49" y="-247.48" font-family="Helvetica,sans-Serif" font-size="12.00">trainer_id </text>
<text text-anchor="start" x="982.49" y="-247.48" font-family="Helvetica,sans-Serif" font-weight="bold" font-size="12.00">integer</text>
</g>
<!-- studyGroupTrainers&#45;&gt;trainers -->
<g id="edge9" class="edge">
<title>studyGroupTrainers&#45;&gt;trainers</title>
<path fill="none" stroke="black" stroke-width="0.9" d="M965.86,-238.32C937.27,-193.04 892.92,-122.79 864.67,-78.05"/>
<polygon fill="black" stroke="black" stroke-width="0.9" points="866.92,-76.36 860.28,-71.09 862.18,-79.35 866.92,-76.36"/>
</g>
<!-- studyGroupTrainers&#45;&gt;studyGroups -->
<g id="edge10" class="edge">
<title>studyGroupTrainers&#45;&gt;studyGroups</title>
<path fill="none" stroke="black" stroke-width="0.9" d="M921.28,-323.11C898.49,-336.05 873.39,-350.32 850.84,-363.13"/>
<polygon fill="black" stroke="black" stroke-width="0.9" points="849.18,-360.85 843.61,-367.24 851.95,-365.72 849.18,-360.85"/>
</g>
<!-- trainingPlanTemplates -->
<g id="node12" class="node">
<title>trainingPlanTemplates</title>
<path fill="none" stroke="black" d="M32,-962.97C32,-962.97 165,-962.97 165,-962.97 171,-962.97 177,-968.97 177,-974.97 177,-974.97 177,-1020.97 177,-1020.97 177,-1026.97 171,-1032.97 165,-1032.97 165,-1032.97 32,-1032.97 32,-1032.97 26,-1032.97 20,-1026.97 20,-1020.97 20,-1020.97 20,-974.97 20,-974.97 20,-968.97 26,-962.97 32,-962.97"/>
<text text-anchor="start" x="27.5" y="-1012.57" font-family="Helvetica,sans-Serif" font-weight="bold" font-size="13.00">trainingPlanTemplates</text>
<polyline fill="none" stroke="black" points="20,-1002.97 177,-1002.97 "/>
<text text-anchor="start" x="33.5" y="-989.37" font-family="Helvetica,sans-Serif" font-size="12.00">id* </text>
<text text-anchor="start" x="51.5" y="-989.37" font-family="Helvetica,sans-Serif" font-weight="bold" font-size="12.00">integer</text>
<text text-anchor="start" x="33.5" y="-972.37" font-family="Helvetica,sans-Serif" font-size="12.00">name </text>
<text text-anchor="start" x="67.5" y="-972.37" font-family="Helvetica,sans-Serif" font-weight="bold" font-size="12.00">varchar(80)</text>
</g>
<!-- trainingPlans -->
<g id="node13" class="node">
<title>trainingPlans</title>
<path fill="none" stroke="black" d="M316.1,-671.44C316.1,-671.44 456.1,-671.44 456.1,-671.44 462.1,-671.44 468.1,-677.44 468.1,-683.44 468.1,-683.44 468.1,-780.44 468.1,-780.44 468.1,-786.44 462.1,-792.44 456.1,-792.44 456.1,-792.44 316.1,-792.44 316.1,-792.44 310.1,-792.44 304.1,-786.44 304.1,-780.44 304.1,-780.44 304.1,-683.44 304.1,-683.44 304.1,-677.44 310.1,-671.44 316.1,-671.44"/>
<text text-anchor="start" x="343.1" y="-772.04" font-family="Helvetica,sans-Serif" font-weight="bold" font-size="13.00">trainingPlans</text>
<polyline fill="none" stroke="black" points="304.1,-762.44 468.1,-762.44 "/>
<text text-anchor="start" x="311.1" y="-748.34" font-family="Helvetica,sans-Serif" font-size="12.00">id* </text>
<text text-anchor="start" x="329.1" y="-748.34" font-family="Helvetica,sans-Serif" font-weight="bold" font-size="12.00">integer</text>
<text text-anchor="start" x="311.1" y="-731.34" font-family="Helvetica,sans-Serif" font-size="12.00">name </text>
<text text-anchor="start" x="345.1" y="-731.34" font-family="Helvetica,sans-Serif" font-weight="bold" font-size="12.00">varchar(80)</text>
<text text-anchor="start" x="311.1" y="-714.34" font-family="Helvetica,sans-Serif" font-size="12.00">athlete_id </text>
<text text-anchor="start" x="367.1" y="-714.34" font-family="Helvetica,sans-Serif" font-weight="bold" font-size="12.00">integer</text>
<text text-anchor="start" x="311.1" y="-697.34" font-family="Helvetica,sans-Serif" font-size="12.00">baseCalendarWeek </text>
<text text-anchor="start" x="421.1" y="-697.34" font-family="Helvetica,sans-Serif" font-weight="bold" font-size="12.00">integer</text>
<text text-anchor="start" x="311.1" y="-680.34" font-family="Helvetica,sans-Serif" font-size="12.00">year </text>
<text text-anchor="start" x="338.1" y="-680.34" font-family="Helvetica,sans-Serif" font-weight="bold" font-size="12.00">integer</text>
</g>
<!-- trainingPlans&#45;&gt;athletes -->
<g id="edge11" class="edge">
<title>trainingPlans&#45;&gt;athletes</title>
<path fill="none" stroke="black" stroke-width="0.9" d="M449.01,-671.42C462.35,-658.58 476.51,-644.96 490.07,-631.92"/>
<polygon fill="black" stroke="black" stroke-width="0.9" points="492.01,-633.93 495.84,-626.36 488.13,-629.89 492.01,-633.93"/>
</g>
<!-- plannedSteps -->
<g id="node14" class="node">
<title>plannedSteps</title>
<path fill="none" stroke="black" d="M322.48,-973.63C322.48,-973.63 485.48,-973.63 485.48,-973.63 491.48,-973.63 497.48,-979.63 497.48,-985.63 497.48,-985.63 497.48,-1116.63 497.48,-1116.63 497.48,-1122.63 491.48,-1128.63 485.48,-1128.63 485.48,-1128.63 322.48,-1128.63 322.48,-1128.63 316.48,-1128.63 310.48,-1122.63 310.48,-1116.63 310.48,-1116.63 310.48,-985.63 310.48,-985.63 310.48,-979.63 316.48,-973.63 322.48,-973.63"/>
<text text-anchor="start" x="359.98" y="-1108.23" font-family="Helvetica,sans-Serif" font-weight="bold" font-size="13.00">plannedSteps</text>
<polyline fill="none" stroke="black" points="310.48,-1098.63 497.48,-1098.63 "/>
<text text-anchor="start" x="317.98" y="-1084.53" font-family="Helvetica,sans-Serif" font-size="12.00">id* </text>
<text text-anchor="start" x="335.98" y="-1084.53" font-family="Helvetica,sans-Serif" font-weight="bold" font-size="12.00">integer</text>
<text text-anchor="start" x="317.98" y="-1067.53" font-family="Helvetica,sans-Serif" font-size="12.00">trainingPlan_id </text>
<text text-anchor="start" x="402.98" y="-1067.53" font-family="Helvetica,sans-Serif" font-weight="bold" font-size="12.00">integer</text>
<text text-anchor="start" x="317.98" y="-1050.53" font-family="Helvetica,sans-Serif" font-size="12.00">trainingPlanTemplate_id </text>
<text text-anchor="start" x="450.98" y="-1050.53" font-family="Helvetica,sans-Serif" font-weight="bold" font-size="12.00">integer</text>
<text text-anchor="start" x="317.98" y="-1033.53" font-family="Helvetica,sans-Serif" font-size="12.00">calendarWeekOffset </text>
<text text-anchor="start" x="429.98" y="-1033.53" font-family="Helvetica,sans-Serif" font-weight="bold" font-size="12.00">integer</text>
<text text-anchor="start" x="317.98" y="-1016.53" font-family="Helvetica,sans-Serif" font-size="12.00">weekday </text>
<text text-anchor="start" x="369.98" y="-1016.53" font-family="Helvetica,sans-Serif" font-weight="bold" font-size="12.00">varchar(20)</text>
<text text-anchor="start" x="317.98" y="-999.53" font-family="Helvetica,sans-Serif" font-size="12.00">amount </text>
<text text-anchor="start" x="360.98" y="-999.53" font-family="Helvetica,sans-Serif" font-weight="bold" font-size="12.00">integer</text>
<text text-anchor="start" x="317.98" y="-982.53" font-family="Helvetica,sans-Serif" font-size="12.00">repeatTimes </text>
<text text-anchor="start" x="386.98" y="-982.53" font-family="Helvetica,sans-Serif" font-weight="bold" font-size="12.00">integer</text>
</g>
<!-- plannedSteps&#45;&gt;trainingPlanTemplates -->
<g id="edge13" class="edge">
<title>plannedSteps&#45;&gt;trainingPlanTemplates</title>
<path fill="none" stroke="black" stroke-width="0.9" d="M310.25,-1034.82C270.46,-1027.89 224.36,-1019.87 185.35,-1013.08"/>
<polygon fill="black" stroke="black" stroke-width="0.9" points="185.5,-1010.27 177.14,-1011.65 184.54,-1015.78 185.5,-1010.27"/>
</g>
<!-- plannedSteps&#45;&gt;trainingPlans -->
<g id="edge12" class="edge">
<title>plannedSteps&#45;&gt;trainingPlans</title>
<path fill="none" stroke="black" stroke-width="0.9" d="M399.63,-973.46C396.67,-920.65 392.79,-851.42 389.95,-800.62"/>
<polygon fill="black" stroke="black" stroke-width="0.9" points="392.75,-800.46 389.5,-792.63 387.15,-800.78 392.75,-800.46"/>
</g>
<!-- plannedWorkouts -->
<g id="node15" class="node">
<title>plannedWorkouts</title>
<path fill="none" stroke="black" d="M11.65,-589.07C11.65,-589.07 174.65,-589.07 174.65,-589.07 180.65,-589.07 186.65,-595.07 186.65,-601.07 186.65,-601.07 186.65,-766.07 186.65,-766.07 186.65,-772.07 180.65,-778.07 174.65,-778.07 174.65,-778.07 11.65,-778.07 11.65,-778.07 5.65,-778.07 -0.35,-772.07 -0.35,-766.07 -0.35,-766.07 -0.35,-601.07 -0.35,-601.07 -0.35,-595.07 5.65,-589.07 11.65,-589.07"/>
<text text-anchor="start" x="37.15" y="-757.67" font-family="Helvetica,sans-Serif" font-weight="bold" font-size="13.00">plannedWorkouts</text>
<polyline fill="none" stroke="black" points="-0.35,-748.07 186.65,-748.07 "/>
<text text-anchor="start" x="7.15" y="-733.97" font-family="Helvetica,sans-Serif" font-size="12.00">id* </text>
<text text-anchor="start" x="25.15" y="-733.97" font-family="Helvetica,sans-Serif" font-weight="bold" font-size="12.00">integer</text>
<text text-anchor="start" x="7.15" y="-716.97" font-family="Helvetica,sans-Serif" font-size="12.00">trainingPlan_id </text>
<text text-anchor="start" x="92.15" y="-716.97" font-family="Helvetica,sans-Serif" font-weight="bold" font-size="12.00">integer</text>
<text text-anchor="start" x="7.15" y="-699.97" font-family="Helvetica,sans-Serif" font-size="12.00">trainingPlanTemplate_id </text>
<text text-anchor="start" x="140.15" y="-699.97" font-family="Helvetica,sans-Serif" font-weight="bold" font-size="12.00">integer</text>
<text text-anchor="start" x="7.15" y="-682.97" font-family="Helvetica,sans-Serif" font-size="12.00">type </text>
<text text-anchor="start" x="33.15" y="-682.97" font-family="Helvetica,sans-Serif" font-weight="bold" font-size="12.00">varchar(30)</text>
<text text-anchor="start" x="7.15" y="-665.97" font-family="Helvetica,sans-Serif" font-size="12.00">calendarWeekOffset </text>
<text text-anchor="start" x="119.15" y="-665.97" font-family="Helvetica,sans-Serif" font-weight="bold" font-size="12.00">integer</text>
<text text-anchor="start" x="7.15" y="-648.97" font-family="Helvetica,sans-Serif" font-size="12.00">weekday </text>
<text text-anchor="start" x="59.15" y="-648.97" font-family="Helvetica,sans-Serif" font-weight="bold" font-size="12.00">varchar(20)</text>
<text text-anchor="start" x="7.15" y="-631.97" font-family="Helvetica,sans-Serif" font-size="12.00">plannedDuration </text>
<text text-anchor="start" x="100.15" y="-631.97" font-family="Helvetica,sans-Serif" font-weight="bold" font-size="12.00">integer</text>
<text text-anchor="start" x="7.15" y="-614.97" font-family="Helvetica,sans-Serif" font-size="12.00">plannedDistance </text>
<text text-anchor="start" x="101.15" y="-614.97" font-family="Helvetica,sans-Serif" font-weight="bold" font-size="12.00">integer</text>
<text text-anchor="start" x="7.15" y="-597.97" font-family="Helvetica,sans-Serif" font-size="12.00">repeatTimes </text>
<text text-anchor="start" x="76.15" y="-597.97" font-family="Helvetica,sans-Serif" font-weight="bold" font-size="12.00">integer</text>
</g>
<!-- plannedWorkouts&#45;&gt;trainingPlanTemplates -->
<g id="edge15" class="edge">
<title>plannedWorkouts&#45;&gt;trainingPlanTemplates</title>
<path fill="none" stroke="black" stroke-width="0.9" d="M94.76,-778.33C95.76,-836.88 96.99,-909.23 97.76,-954.5"/>
<polygon fill="black" stroke="black" stroke-width="0.9" points="94.96,-954.68 97.9,-962.63 100.56,-954.59 94.96,-954.68"/>
</g>
<!-- plannedWorkouts&#45;&gt;trainingPlans -->
<g id="edge14" class="edge">
<title>plannedWorkouts&#45;&gt;trainingPlans</title>
<path fill="none" stroke="black" stroke-width="0.9" d="M187.05,-699.08C221.91,-704.83 261.35,-711.35 295.88,-717.05"/>
<polygon fill="black" stroke="black" stroke-width="0.9" points="295.73,-719.86 304.08,-718.4 296.65,-714.34 295.73,-719.86"/>
</g>
</g>
</svg>
